<svg width="32" height="32" fill="none" xmlns="http://www.w3.org/2000/svg"><rect width="32" height="32" rx="3" fill="#C50000"/><g clip-path="url(#favicon_svg__clip0_1_2)"><path fill-rule="evenodd" clip-rule="evenodd" d="M28.788 12h-2.705s-.186 0-.252.165l-1.497 4.585-1.496-4.585C22.772 12 22.584 12 22.584 12h-5.201a.209.209 0 00-.207.206v1.557c0-1.235-1.314-1.763-2.083-1.763-1.723 0-2.876 1.135-3.235 2.861-.02-1.145-.114-1.555-.423-1.975a1.984 1.984 0 00-.569-.522c-.459-.27-.87-.364-1.756-.364H8.07s-.188 0-.254.165L6.87 14.51v-2.304A.208.208 0 006.664 12H4.258s-.186 0-.253.165l-.984 2.439s-.098.244.127.244h.924v4.647c0 .115.091.207.207.207h2.385a.207.207 0 00.206-.207v-4.648h.93c.533 0 .646.015.854.112a.591.591 0 01.299.253c.125.237.157.521.157 1.36v2.923c0 .115.093.207.207.207h2.286s.258 0 .36-.256l.507-1.252c.673.944 1.782 1.508 3.16 1.508h.3s.26 0 .364-.256l.882-2.186v2.235c0 .115.094.207.207.207h2.333s.258 0 .361-.256c0 0 .933-2.318.937-2.335h.002c.035-.193-.208-.193-.208-.193h-.833V12.94l2.62 6.507c.103.255.36.255.36.255h2.757s.26 0 .362-.256l2.905-7.197c.1-.249-.19-.249-.19-.249zm-11.612 4.918h-1.568a1.131 1.131 0 110-2.263h.439c.622 0 1.129.509 1.129 1.133v1.13z" fill="#fff"/></g><defs><clipPath id="favicon_svg__clip0_1_2"><path fill="#fff" transform="translate(3 12)" d="M0 0h26v7.719H0z"/></clipPath></defs></svg>