<svg xmlns="http://www.w3.org/2000/svg" xmlns:xlink="http://www.w3.org/1999/xlink" viewBox="0 0 311 182">
    <defs>
        <path id="a" d="M0 181.51h310.73V.61H0z"/>
    </defs>
    <g fill="none" fill-rule="evenodd">
        <path fill="#2F3237" d="M4.01 83.11h115.43V1.82H4.01z"/>
        <path fill="#DEDEDA" d="M9.25 80.15h104.96V12.47H9.25z"/>
        <path fill="#2F3237" d="M0 85.39h123.46v-3.15H0zM0 7.81h123.46V.49H0z"/>
        <path fill="#DEDEDA" d="M9.25 4.94h104.96V2.62H9.25z"/>
        <path fill="#2F3237" d="M60.41 93.29h2.64v-9.48h-2.64z"/>
        <g transform="translate(0 -.12)">
            <path fill="#2F3237"
                  d="M61.73 95.5c-.69 0-1.3.29-1.63.76l-5.87 8.33a1.98 1.98 0 0 0 1.62 3.14H67.6c.75 0 1.43-.41 1.77-1.08.34-.66.29-1.45-.14-2.06l-5.88-8.33a1.96 1.96 0 0 0-1.62-.75Zm5.87 15.33H55.85a5.08 5.08 0 0 1-4.15-8.04l5.87-8.32a5.04 5.04 0 0 1 4.16-2.06c1.69 0 3.24.77 4.15 2.06l5.87 8.33a5.08 5.08 0 0 1-4.15 8.03Z"/>
            <path fill="#838688"
                  d="M274.18 119.64a1.47 1.47 0 1 0 2.95 0c0-.25-.08-.47-.18-.67h-2.6c-.1.2-.17.42-.17.67M289.67 123.2h11.59a3.83 3.83 0 0 1 3.82 3.83v54.48h5.65v-57.98a4.56 4.56 0 0 0-4.56-4.56h-16.61c.07.32.1.67.1 1.01v3.22ZM246.22 181.51v-45.7l13.31-12.6h2.1v-3.23c0-.35.05-.68.12-1.01h-16.62a4.56 4.56 0 0 0-4.55 4.56v57.98h5.64Z"/>
            <mask id="b" fill="#fff">
                <use xlink:href="#a"/>
            </mask>
            <path fill="#FFF"
                  d="M265.75 155.66h28.42v-3.18h-28.42v3.18Zm0 7.2h28.42v-3.19h-28.42v3.18Zm0 7.18h28.42v-3.18h-28.42v3.18Zm0 7.2h28.42v-3.18h-28.42v3.17Zm-4.42-24.76v3.18h-3.35v-3.18h.3l-.73-.82.72.82h2.71l1.77-2.28-1.77 2.28h.35Zm-3.35 10.37h3.35v-3.18h-3.35v3.18Zm0 7.2h3.35v-3.19h-3.35v3.18Zm0 7.18h3.35v-3.17h-3.35v3.17Zm47.1-50.2a3.83 3.83 0 0 0-3.82-3.83h-11.6v2.69h-28.02v-2.69h-2.1v8.8a3.83 3.83 0 0 1-3.83 3.82h-9.49v45.7h58.86v-54.49Z"
                  mask="url(#b)"/>
            <path fill="#BBBCBC" d="M259.53 131.99v-8.79l-13.3 12.62h9.48a3.83 3.83 0 0 0 3.82-3.83" mask="url(#b)"/>
            <path fill="#C0C0BE"
                  d="M265.75 155.66h28.42v-3.18h-28.42zM265.75 162.85h28.42v-3.18h-28.42zM265.75 170.04h28.42v-3.18h-28.42zM265.75 177.23h28.42v-3.17h-28.42zM259.71 154.12l1.27-1.64h-2.71z"
                  mask="url(#b)"/>
            <path fill="#C0C0BE"
                  d="M258.27 152.48h-.29v3.18h3.35v-3.18h-.35l-1.27 1.64zM257.98 162.85h3.35v-3.18h-3.35zM257.98 170.04h3.35v-3.18h-3.35zM257.98 177.23h3.35v-3.17h-3.35z"
                  mask="url(#b)"/>
            <path fill="#4C4F50"
                  d="M275.65 118.16c.57 0 1.05.33 1.3.8h12.6a4.9 4.9 0 0 0-4.79-3.89h-5.49v-1a3.62 3.62 0 1 0-7.24 0v1h-5.49a4.9 4.9 0 0 0-4.8 3.9h12.62c.24-.48.72-.81 1.3-.81M261.64 123.2h28.03v-3.22c0-.34-.04-.69-.11-1.01h-12.61c.1.2.18.42.18.67a1.48 1.48 0 0 1-2.95 0c0-.25.07-.47.18-.67h-12.61c-.07.32-.11.67-.11 1.01v3.22ZM261.64 125.89h28.03v-2.69h-28.03z"
                  mask="url(#b)"/>
            <path fill="#85C556" d="m259.63 156.18-3.1-3.55 1.77-1.56 1.21 1.39 2.17-2.79 1.86 1.45z" mask="url(#b)"/>
            <path fill="#2F3237" d="M86.46 107.07v49.42s-.11-13.05 31.17-13.05-.9-36.37-.9-36.37H86.47Z"
                  mask="url(#b)"/>
            <path fill="#2F3237" d="M148.86 107.07v49.42s.1-13.05-31.17-13.05c-31.28 0 .9-36.37.9-36.37h30.27Z"
                  mask="url(#b)"/>
            <path fill="#2F3237"
                  d="M148.8 107.07c0 19.38-13.96 35.09-31.17 35.09s-31.17-15.71-31.17-35.1c0-19.38 13.96-35.09 31.17-35.09s31.17 15.71 31.17 35.1"
                  mask="url(#b)"/>
            <path fill="#8E9738"
                  d="M127.93 131.46H107.5c-5.5 0-23.62 11.43-23.62 22.07v27.98h67.67v-27.98c0-10.64-18.11-22.07-23.62-22.07"
                  mask="url(#b)"/>
            <path fill="#E7E6E2"
                  d="M127.33 130.4c-1.18 0-9.61 3.6-9.61 3.6s-9.93-2.83-10.7-2.98c-.76-.15-6.29 2.78-6.29 2.78 1.39 2.04 5.32 11.52 16.99 11.52 11.66 0 15.6-9.48 16.99-11.52 0 0-6.2-3.4-7.38-3.4"
                  mask="url(#b)"/>
            <path fill="#E7E6E2"
                  d="M92.02 100.93s-.13.27-.3.15a2.16 2.16 0 0 0-2.95 2.02v8.74a2.16 2.16 0 0 0 3.44 1.74c2.9 13.32 13.22 23.17 25.5 23.17 12.29 0 22.6-9.85 25.51-23.17a2.16 2.16 0 0 0 3.44-1.74v-8.74a2.16 2.16 0 0 0-2.94-2.02c-27.7 3.22-51.7-.15-51.7-.15"
                  mask="url(#b)"/>
            <path fill="#FFF" d="m134.71 132.66-28.77 47.71h32.57v-45.42" mask="url(#b)"/>
            <path fill="#FFF" d="m100.73 132.58 14.43 46.87h-4.64" mask="url(#b)"/>
            <path fill="#0F5FA9"
                  d="M205.91 129.57h-21.2c-5.71 0-24.51 11.86-24.51 22.9v29.04h70.22v-29.04c0-11.04-18.8-22.9-24.5-22.9"
                  mask="url(#b)"/>
            <path fill="#3C84C5" d="M203.56 152.67h16.15v8.98s-6.24 6.93-8.08 6.93c-1.83 0-8.07-6.93-8.07-6.93v-8.98Z"
                  mask="url(#b)"/>
            <path fill="#3C84C5"
                  d="m205.29 129.6-9.98 3.75-11.1-3.1-4.46 1.88c1.44 2.12 9.25 7.04 13.27 7.04l-.94-.05v5.82l1.41.79-5.18 21.85 7 9.75 7-9.75-5.18-21.85 1.41-.79v-5.82l-.94.05c4.02 0 12.04-4.92 13.48-7.04l-5.8-2.53Z"
                  mask="url(#b)"/>
            <path fill="#E7E6E2"
                  d="M222.63 103.06c0 17.68-12.23 32-27.32 32s-27.32-14.32-27.32-32c0-17.67 12.23-32 27.32-32 15.1 0 27.32 14.33 27.32 32"
                  mask="url(#b)"/>
            <path fill="#2F3237"
                  d="M220.86 101.37c2.24.6 1.55-1.05 1.55-3.48 0-17.68-12.24-32-27.33-32-15.09 0-27.32 14.32-27.32 32 0 2.33.21 4.6.62 6.78 0 0 7.6-6.87 9.45-9.67 2.45-3.73 4.82-11.53 4.82-11.53.85 0 11.45 10.82 38.21 17.9"
                  mask="url(#b)"/>
            <path fill="#E7E6E2"
                  d="M224.63 111.46h-3.05a.72.72 0 0 1-.72-.72V98.6c0-.4.32-.71.72-.71h3.05c.4 0 .72.32.72.71v12.14c0 .4-.32.72-.72.72"
                  mask="url(#b)"/>
            <path fill="#C0C0BE"
                  d="M188.14 122.76h14.34v-4.2h-14.34v4.2Zm17.65-4.97v-2.75H183.8v3.06h-12.72c4.6 10.1 13.68 16.96 24.12 16.96 10.62 0 19.82-6.92 24.34-17.27H205.8Z"
                  mask="url(#b)"/>
            <path fill="#E7E6E2"
                  d="M169.04 111.46H166a.72.72 0 0 1-.72-.72V98.6c0-.4.32-.71.72-.71h3.05c.4 0 .72.32.72.71v12.14c0 .4-.32.72-.72.72"
                  mask="url(#b)"/>
            <path fill="#0C576F"
                  d="M56.6 159.7a3.51 3.51 0 0 1-2.55-5.94 3.52 3.52 0 1 1 2.56 5.93m-.32-13.2a9.7 9.7 0 0 0-1.65.16l.5-5.96H19.88l3.42 40.82h28.42l1.38-16.47a9.51 9.51 0 0 0 12.73-8.99 9.55 9.55 0 0 0-9.54-9.55"
                  mask="url(#b)"/>
        </g>
        <g>
            <path fill="#635E59"
                  d="M108.82 112.61c-1.66.13-2.13-2.32-1.63-3.92.1-.3.65-1.69 1.62-1.69.98 0 1.4.75 1.47.88.71 1.57.36 4.6-1.46 4.73M127.4 112.61c1.66.13 2.12-2.32 1.62-3.92-.1-.3-.65-1.69-1.62-1.69-.97 0-1.4.75-1.46.88-.72 1.57-.37 4.6 1.45 4.73"/>
            <path stroke="#D1BFA3" stroke-linecap="round" stroke-width=".51"
                  d="M118.55 114.87c.99-.16 1.96-.12 2.42.44 1.1 1.36.79 2.94-1.08 4.1-.94.58-2.26.82-3.07.46"/>
            <path stroke="#D19E9C" stroke-linecap="round" stroke-width="1.01"
                  d="M125.71 124.05s-2.1 4.81-7.95 4.64c-5.85-.18-8.04-4.64-8.04-4.64"/>
        </g>
        <g>
            <path fill="#635E59"
                  d="M185.82 105.61c-1.66.13-2.13-2.32-1.63-3.92.1-.3.65-1.69 1.62-1.69.98 0 1.4.75 1.47.88.71 1.57.36 4.6-1.46 4.73M204.4 105.61c1.66.13 2.12-2.32 1.62-3.92-.1-.3-.65-1.69-1.62-1.69-.97 0-1.4.75-1.46.88-.72 1.57-.37 4.6 1.45 4.73"/>
            <path stroke="#D1BFA3" stroke-linecap="round" stroke-width=".51"
                  d="M195.55 107.87c.99-.16 1.96-.12 2.42.44 1.1 1.36.79 2.94-1.08 4.1-.94.58-2.26.82-3.07.46"/>
        </g>
    </g>
</svg>
